<svg xmlns="http://www.w3.org/2000/svg" xmlns:xlink="http://www.w3.org/1999/xlink" width="30" height="30" viewBox="0 0 500 500" fill="none" xmlns="http://www.w3.org/2000/svg" xmlns:xlink="http://www.w3.org/1999/xlink"><desc>			Created with Akko.	</desc><defs><filter id="filter_6_16_dd" x="90.000000" y="81.500000" width="332.500000" height="332.500000" filterUnits="userSpaceOnUse" color-interpolation-filters="sRGB"><feFlood flood-opacity="0" result="BackgroundImageFix" /><feColorMatrix in="SourceAlpha" type="matrix" values="0 0 0 0 0 0 0 0 0 0 0 0 0 0 0 0 0 0 127 0" result="hardAlpha" /><feOffset dx="0" dy="4" /><feGaussianBlur stdDeviation="6.66667" /><feComposite in2="hardAlpha" operator="out" k2="-1" k3="1" /><feColorMatrix type="matrix" values="0 0 0 0 0 0 0 0 0 0 0 0 0 0 0 0 0 0 0.1 0" /><feBlend mode="normal" in2="BackgroundImageFix" result="effect_dropShadow_1" /><feBlend mode="normal" in="SourceGraphic" in2="effect_dropShadow_1" result="shape" /></filter><clipPath id="clip6_13"><rect id="MahiroAi-icon-svg" width="500.000000" height="500.000000" fill="white" fill-opacity="0" /></clipPath></defs><g clip-path="url(#clip6_13)"><rect id="矩形 1" rx="180.000000" width="500.000000" height="500.000000" fill="#FFD1EC" fill-opacity="1.000000" /><g filter="url(#filter_6_16_dd)"><circle id="椭圆 1" cx="229.500000" cy="270.500000" r="119.500000" fill="#FFFFFF" fill-opacity="0.500000" /><circle id="椭圆 1" cx="229.500000" cy="270.500000" r="107.000000" stroke="#FFFFFF" stroke-opacity="1.000000" stroke-width="25.000000" /><path id="箭头 1" d="M359.82 122.5L290 122.5C283 122.5 277.5 117 277.5 110C277.5 103 283 97.5 290 97.5L390 97.5C397 97.5 402.5 103 402.5 110L402.5 210C402.5 217 397 222.5 390 222.5C383 222.5 377.5 217 377.5 210L377.5 140.17L317.83 199.83C312.88 204.78 305.11 204.78 300.16 199.83C295.21 194.88 295.21 187.11 300.16 182.16L359.82 122.5Z" fill="#FFFFFF" fill-opacity="1.000000" fill-rule="evenodd" /></g></g></svg>